<svg height="512pt" viewBox="0 -6 512 511" width="512pt" xmlns="http://www.w3.org/2000/svg"><path d="m256 175.5-21.332031 128 21.332031 128 256-17.960938v-220.082031zm0 0" fill="#d9e7ec"/><path d="m0 413.539062 256 17.960938v-256l-256 17.957031zm0 0" fill="#e8f0f3"/><path d="m245.332031 111.5 10.667969 81.957031h256v-120.65625h-108.222656l-31.253906-72.300781h-116.523438zm0 0" fill="#0093fd"/><path d="m108.222656 72.800781h-108.222656v120.65625h256v-192.957031h-116.523438zm0 0" fill="#12b0ff"/><path d="m256 499.066406h256v-85.527344h-256l-10.667969 39.296876zm0 0" fill="#0093fd"/><path d="m313.667969 39h-57.667969l-10.667969 37.582031 10.667969 37.582031h57.667969zm0 0" fill="#d9e7ec"/><path d="m0 413.539062h256v85.527344h-256zm0 0" fill="#12b0ff"/><path d="m198.332031 39h57.667969v75.167969h-57.667969zm0 0" fill="#f7fafb"/><path d="m256 155.5-10.667969 131.667969 10.667969 164.332031c81.605469 0 148-66.394531 148-148 0-81.609375-66.394531-148-148-148zm0 0" fill="#292929"/><path d="m108 303.5c0 81.605469 66.394531 148 148 148v-296c-81.605469 0-148 66.390625-148 148zm0 0" fill="#444"/><path d="m256 185.5-10.667969 123 10.667969 113c65.066406 0 118-52.933594 118-118s-52.933594-118-118-118zm0 0" fill="#6e6e6e"/><path d="m138 303.5c0 65.066406 52.933594 118 118 118v-236c-65.066406 0-118 52.933594-118 118zm0 0" fill="#838383"/><path d="m256 235.5-10.667969 62.332031 10.667969 73.667969c37.496094 0 68-30.503906 68-68s-30.503906-68-68-68zm0 0" fill="#d9e7ec"/><path d="m188 303.5c0 37.496094 30.503906 68 68 68v-136c-37.496094 0-68 30.503906-68 68zm0 0" fill="#f7fafb"/><path d="m256 265.5-10.667969 32.332031 10.667969 43.667969c20.953125 0 38-17.046875 38-38s-17.046875-38-38-38zm0 0" fill="#292929"/><path d="m218 303.5c0 20.953125 17.046875 38 38 38v-76c-20.953125 0-38 17.046875-38 38zm0 0" fill="#444"/></svg>